<svg xmlns="http://www.w3.org/2000/svg" viewBox="0 0 32 32" width="32" height="32">
  <!-- 背景渐变 -->
  <defs>
    <radialGradient id="bg" cx="50%" cy="30%" r="70%">
      <stop offset="0%" style="stop-color:#ff8c42"/>
      <stop offset="100%" style="stop-color:#ff6b35"/>
    </radialGradient>
    <linearGradient id="meat1" x1="0%" y1="0%" x2="100%" y2="100%">
      <stop offset="0%" style="stop-color:#D2691E"/>
      <stop offset="100%" style="stop-color:#A0522D"/>
    </linearGradient>
    <linearGradient id="meat2" x1="0%" y1="0%" x2="100%" y2="100%">
      <stop offset="0%" style="stop-color:#CD853F"/>
      <stop offset="100%" style="stop-color:#8B4513"/>
    </linearGradient>
    <linearGradient id="stick" x1="0%" y1="0%" x2="100%" y2="0%">
      <stop offset="0%" style="stop-color:#8B4513"/>
      <stop offset="50%" style="stop-color:#A0522D"/>
      <stop offset="100%" style="stop-color:#8B4513"/>
    </linearGradient>
  </defs>
  
  <!-- 背景圆形 -->
  <circle cx="16" cy="16" r="16" fill="url(#bg)"/>
  
  <!-- 烤串棍子 -->
  <rect x="4" y="15.2" width="24" height="1.6" fill="url(#stick)" rx="0.8"/>
  
  <!-- 肉块1 -->
  <ellipse cx="9" cy="16" rx="2.8" ry="2.5" fill="url(#meat1)"/>
  <ellipse cx="9" cy="15.3" rx="2.3" ry="1.8" fill="#E6A85C" opacity="0.8"/>
  
  <!-- 肉块2 -->
  <ellipse cx="16" cy="16" rx="3" ry="2.8" fill="url(#meat2)"/>
  <ellipse cx="16" cy="15.2" rx="2.5" ry="2" fill="#D2691E" opacity="0.9"/>
  
  <!-- 肉块3 -->
  <ellipse cx="23" cy="16" rx="2.8" ry="2.5" fill="url(#meat1)"/>
  <ellipse cx="23" cy="15.3" rx="2.3" ry="1.8" fill="#CD853F" opacity="0.8"/>
  
  <!-- 烧烤纹理 -->
  <ellipse cx="9" cy="16" rx="1.5" ry="0.8" fill="none" stroke="#654321" stroke-width="0.4" opacity="0.7"/>
  <ellipse cx="16" cy="16" rx="1.8" ry="1" fill="none" stroke="#654321" stroke-width="0.4" opacity="0.7"/>
  <ellipse cx="23" cy="16" rx="1.5" ry="0.8" fill="none" stroke="#654321" stroke-width="0.4" opacity="0.7"/>
  
  <!-- 烧烤焦糖色斑点 -->
  <circle cx="8" cy="15" r="0.3" fill="#654321" opacity="0.8"/>
  <circle cx="10" cy="17" r="0.2" fill="#654321" opacity="0.6"/>
  <circle cx="15" cy="15.5" r="0.3" fill="#654321" opacity="0.8"/>
  <circle cx="17" cy="16.8" r="0.25" fill="#654321" opacity="0.7"/>
  <circle cx="22" cy="15.2" r="0.3" fill="#654321" opacity="0.8"/>
  <circle cx="24" cy="16.5" r="0.2" fill="#654321" opacity="0.6"/>
  
  <!-- 火焰效果 -->
  <path d="M6 20 Q7 22 6.5 24 Q8 22 9.5 24 Q10 22 11.5 24 Q12.5 22 14 24 Q15 22 16.5 24 Q17.5 22 19 24 Q20 22 21.5 24 Q22.5 22 24 24 Q25 22 26 24" 
        stroke="#ff4500" stroke-width="1" fill="none" opacity="0.8"/>
  <path d="M7 21 Q8 23 7.5 25 Q9 23 10.5 25 Q11 23 12.5 25 Q13.5 23 15 25 Q16 23 17.5 25 Q18.5 23 20 25 Q21 23 22.5 25 Q23.5 23 25 25" 
        stroke="#ff6600" stroke-width="0.8" fill="none" opacity="0.6"/>
  
  <!-- 烟雾效果 -->
  <circle cx="10" cy="9" r="0.8" fill="#f5f5f5" opacity="0.7"/>
  <circle cx="13" cy="7" r="1" fill="#f0f0f0" opacity="0.6"/>
  <circle cx="16" cy="6" r="1.2" fill="#f5f5f5" opacity="0.5"/>
  <circle cx="19" cy="7.5" r="0.9" fill="#f0f0f0" opacity="0.6"/>
  <circle cx="22" cy="9" r="0.7" fill="#f5f5f5" opacity="0.7"/>
  
  <!-- 高光效果 -->
  <ellipse cx="9" cy="14.5" rx="1" ry="0.5" fill="#ffffff" opacity="0.3"/>
  <ellipse cx="16" cy="14.2" rx="1.2" ry="0.6" fill="#ffffff" opacity="0.3"/>
  <ellipse cx="23" cy="14.5" rx="1" ry="0.5" fill="#ffffff" opacity="0.3"/>
</svg>